#!OML:ASF F:\VICON\USERDATA\INSTALL\rory3\rory3.ASF
:FULLY-SPECIFIED
:DEGREES
745
root -4.73435 16.6621 1.13125 -12.789 5.246 -2.61848
lowerback 2.47377 0.42561 -2.86853
upperback 1.16344 0.493741 -3.56566
thorax -0.185793 0.247284 -2.06388
lowerneck 1.07976 0.100827 -7.07819
upperneck 25.8375 -0.166294 3.88344
head 7.7785 -0.407343 2.50076
rclavicle -1.88845e-014 -4.6118e-014
rhumerus 27.4916 -3.57019 -43.036
rradius 15.8335
rwrist 36.4825
rhand -17.3346 -5.99451
rfingers 7.12502
rthumb 8.91245 -35.7863
lclavicle -1.88845e-014 -4.6118e-014
lhumerus 24.0501 -39.6265 69.1183
lradius 137.781
lwrist 85.6181
lhand -33.5622 59.4159
lfingers 7.12502
lthumb -6.75699 89.2881
rfemur -9.77772 2.38858 21.0718
rtibia 60.3003
rfoot -34.415 -21.8692
rtoes -7.43982
lfemur -28.5698 11.2379 -1.39685
ltibia 74.7932
lfoot -12.3411 -7.18657
ltoes -10.4411
746
root -4.69942 16.6671 1.12299 -12.8218 5.631 -2.62285
lowerback 2.61579 0.340905 -3.04381
upperback 1.0792 0.365658 -3.4042
thorax -0.355903 0.18362 -1.79728
lowerneck 1.21314 0.11682 -6.99635
upperneck 26.0316 -0.117192 3.70123
head 7.81982 -0.39451 2.43124
rclavicle 2.20651e-014 2.54444e-014
rhumerus 27.4188 -3.61967 -42.8497
rradius 15.7842
rwrist 37.0618
rhand -16.7636 -5.15243
rfingers 7.12502
rthumb 9.46349 -34.9199
lclavicle 2.20651e-014 2.54444e-014
lhumerus 23.7707 -39.6951 69.4679
lradius 137.748
lwrist 85.4058
lhand -33.5733 59.5648
lfingers 7.12502
lthumb -6.76764 89.4366
rfemur -9.68933 2.37879 20.9843
rtibia 60.2368
rfoot -34.4134 -22.2511
rtoes -7.3296
lfemur -28.3791 10.5772 -0.9849
ltibia 74.9589
lfoot -12.013 -6.61439
ltoes -9.98246
747
root -4.66129 16.6696 1.11395 -12.8556 5.95156 -2.7455
lowerback 2.73878 0.301435 -3.03292
upperback 0.980771 0.302811 -3.25961
thorax -0.527213 0.15348 -1.65373
lowerneck 1.48617 0.0679399 -6.96732
upperneck 26.2054 -0.188146 3.62392
head 7.83613 -0.435886 2.39796
rclavicle 1.98785e-015 2.8625e-014
rhumerus 27.1734 -3.55651 -42.5395
rradius 15.76
rwrist 37.2686
rhand -16.6173 -4.94597
rfingers 7.12502
rthumb 9.60462 -34.707
lclavicle 1.98785e-015 2.8625e-014
lhumerus 23.5026 -39.8686 69.7632
lradius 137.718
lwrist 85.2658
lhand -33.5494 59.6823
lfingers 7.12502
lthumb -6.74457 89.5549
rfemur -9.61049 2.38926 21.0234
rtibia 60.1453
rfoot -34.3585 -22.5877
rtoes -7.33638
lfemur -28.191 9.95725 -0.417853
ltibia 75.1273
lfoot -11.5933 -5.95887
ltoes -9.10682
748
root -4.61925 16.6731 1.10402 -12.9208 6.21662 -2.80497
lowerback 2.85963 0.284875 -2.95635
upperback 0.96196 0.276012 -3.19575
thorax -0.614399 0.140784 -1.63079
lowerneck 1.67735 0.0499149 -6.98656
upperneck 26.2909 -0.24087 3.69952
head 7.83427 -0.458142 2.42447
rclavicle -1.2921e-014 4.77083e-014
rhumerus 26.9276 -3.56602 -42.2709
rradius 15.745
rwrist 37.2753
rhand -16.8499 -5.16368
rfingers 7.12502
rthumb 9.38017 -34.935
lclavicle -1.2921e-014 4.77083e-014
lhumerus 23.426 -40.042 69.8541
lradius 137.647
lwrist 85.1234
lhand -33.4019 59.8495
lfingers 7.12502
lthumb -6.60218 89.7266
rfemur -9.48802 2.42461 20.9797
rtibia 60.0098
rfoot -34.1906 -22.9674
rtoes -7.64232
lfemur -27.8823 9.36803 0.0816593
ltibia 75.2619
lfoot -11.4337 -5.33885
ltoes -8.57592
749
root -4.57216 16.6851 1.09985 -12.9265 6.48911 -2.7235
lowerback 2.79503 0.218138 -3.0549
upperback 1.02906 0.191437 -3.12308
thorax -0.510433 0.097368 -1.49747
lowerneck 1.65624 0.0614709 -7.00239
upperneck 26.3222 -0.211376 3.65511
head 7.84755 -0.448818 2.41466
rclavicle 9.34288e-015 1.90833e-014
rhumerus 26.849 -3.2203 -41.7833
rradius 15.8084
rwrist 36.9474
rhand -16.919 -5.41702
rfingers 7.12502
rthumb 9.31353 -35.1913
lclavicle 9.34288e-015 1.90833e-014
lhumerus 23.4414 -40.0036 69.8934
lradius 137.591
lwrist 84.8389
lhand -33.5234 60.2114
lfingers 7.12502
lthumb -6.71945 -90.0848
rfemur -9.37041 2.39007 20.728
rtibia 59.8308
rfoot -33.9073 -23.3754
rtoes -8.12259
lfemur -27.4949 8.82043 0.363568
ltibia 75.3397
lfoot -11.4174 -4.38978
ltoes -8.19986
750
root -4.52211 16.6979 1.09497 -12.9567 6.69229 -2.68263
lowerback 2.75177 0.206182 -3.0482
upperback 1.10552 0.181768 -3.08267
thorax -0.407868 0.0914513 -1.45894
lowerneck 1.46801 0.0096556 -6.97449
upperneck 26.5262 -0.27751 3.68254
head 7.95386 -0.476155 2.41912
rclavicle 5.76476e-015 -9.54166e-015
rhumerus 26.7197 -3.28713 -41.5337
rradius 15.7666
rwrist 36.9492
rhand -17.1003 -5.62673
rfingers 7.12502
rthumb 9.13855 -35.4087
lclavicle 5.76476e-015 -9.54166e-015
lhumerus 23.5727 -40.0891 69.8515
lradius 137.553
lwrist 84.5308
lhand -33.6913 60.4588
lfingers 7.12502
lthumb -6.88154 -90.3269
rfemur -9.21458 2.39522 20.5125
rtibia 59.6479
rfoot -33.7443 -23.5699
rtoes -8.25939
lfemur -27.0452 8.37791 0.693171
ltibia 75.3859
lfoot -11.3458 -3.27012
ltoes -6.80449
751
root -4.47062 16.7125 1.08538 -12.9235 6.95696 -2.68108
lowerback 2.75389 0.194292 -3.00948
upperback 1.11393 0.167474 -3.04748
thorax -0.400493 0.0842803 -1.44395
lowerneck 1.40274 -0.0550501 -6.93534
upperneck 26.68 -0.374691 3.72658
head 8.02319 -0.515644 2.42414
rclavicle -4.17448e-015 -1.43125e-014
rhumerus 26.5301 -3.56028 -41.4449
rradius 15.6351
rwrist 37.0992
rhand -17.5702 -5.9437
rfingers 7.12502
rthumb 8.68516 -35.745
lclavicle -4.17448e-015 -1.43125e-014
lhumerus 23.6805 -40.2561 69.7904
lradius 137.515
lwrist 84.3156
lhand -33.5877 60.43
lfingers 7.12502
lthumb -6.78152 -90.3014
rfemur -9.0974 2.43137 20.3167
rtibia 59.4607
rfoot -33.9229 -23.3615
rtoes -6.84276
lfemur -26.7217 7.89179 1.01561
ltibia 75.4066
lfoot -11.2985 -2.08897
ltoes -6.40753
752
root -4.41818 16.7253 1.07934 -12.944 7.21482 -2.63471
lowerback 2.8006 0.132 -3.13746
upperback 1.15781 0.081084 -2.9777
thorax -0.382082 0.0403733 -1.298
lowerneck 1.31091 -0.0775764 -6.84316
upperneck 26.7953 -0.388808 3.65211
head 8.07994 -0.520269 2.38432
rclavicle -1.98785e-016 9.54166e-015
rhumerus 26.5133 -3.87505 -41.4814
rradius 15.5017
rwrist 37.3923
rhand -17.7999 -6.05833
rfingers 7.12502
rthumb 8.46342 -35.8687
lclavicle -1.98785e-016 9.54166e-015
lhumerus 23.6947 -40.2808 69.7181
lradius 137.476
lwrist 84.1307
lhand -33.5747 60.2721
lfingers 7.12502
lthumb -6.76905 -90.1439
rfemur -8.88025 2.5092 20.0681
rtibia 59.2679
rfoot -34.2809 -22.9394
rtoes -3.96854
lfemur -26.2541 7.38693 1.30639
ltibia 75.387
lfoot -11.3251 -0.952597
ltoes -6.85591
753
root -4.36113 16.7383 1.07637 -13.0314 7.4034 -2.65741
lowerback 2.84588 0.0694734 -3.1785
upperback 1.24267 -0.00141995 -2.86451
thorax -0.320289 -0.00215709 -1.15615
lowerneck 1.23177 -0.0570394 -6.88285
upperneck 26.8594 -0.355104 3.66725
head 8.11427 -0.506465 2.39972
rclavicle 6.55989e-015 3.18055e-015
rhumerus 26.4808 -3.92237 -41.2968
rradius 15.4701
rwrist 37.5447
rhand -17.7188 -5.99654
rfingers 7.12502
rthumb 8.54167 -35.8038
lclavicle 6.55989e-015 3.18055e-015
lhumerus 23.753 -40.1973 69.7053
lradius 137.414
lwrist 84.1102
lhand -33.6929 60.2169
lfingers 7.12502
lthumb -6.88312 -90.085
rfemur -8.59605 2.55962 19.9184
rtibia 59.0142
rfoot -34.2703 -23.0493
rtoes -3.6831
lfemur -25.6575 6.90233 1.70843
ltibia 75.3451
lfoot -11.3072 -0.0167508
ltoes -5.67307
